<svg width="228" height="67" viewBox="0 0 228 67" fill="none" xmlns="http://www.w3.org/2000/svg">
<g clip-path="url(#clip0_80_37)">
<path d="M72.3828 39.0703V27.4297C72.3828 26.1406 72.5651 25.0664 72.9297 24.207C73.2943 23.3216 73.763 22.5794 74.3359 21.9805C74.9089 21.3815 75.5339 20.9193 76.2109 20.5938C76.5495 20.4245 76.8815 20.2812 77.207 20.1641C77.5456 20.0469 77.8776 19.9427 78.2031 19.8516C78.8542 19.6953 79.4336 19.5977 79.9414 19.5586C80.4622 19.5195 80.8464 19.5 81.0938 19.5H81.7578C82.0052 19.5 82.3893 19.5195 82.9102 19.5586C83.418 19.5977 83.9909 19.6953 84.6289 19.8516C85.2799 20.0078 85.944 20.2552 86.6211 20.5938C87.2721 20.9062 87.8906 21.3685 88.4766 21.9805C89.0365 22.5794 89.4922 23.3216 89.8438 24.207C90.2083 25.0924 90.3906 26.1667 90.3906 27.4297V39.0703C90.3906 40.0469 90.2734 40.9193 90.0391 41.6875C89.8177 42.4557 89.5182 43.1458 89.1406 43.7578L91.0938 45.5156C91.276 45.6979 91.4323 45.8932 91.5625 46.1016C91.6927 46.2969 91.7578 46.6224 91.7578 47.0781C91.7578 47.2734 91.7122 47.5013 91.6211 47.7617C91.5299 48.0352 91.3542 48.3021 91.0938 48.5625C90.8333 48.7969 90.5729 48.9531 90.3125 49.0312C90.0651 49.1094 89.8307 49.1484 89.6094 49.1484C89.1536 49.1484 88.8086 49.0833 88.5742 48.9531C88.3398 48.8359 88.151 48.7057 88.0078 48.5625L85.8203 46.4922C84.9479 46.7786 84.1667 46.9609 83.4766 47.0391C82.7865 47.1172 82.2135 47.1562 81.7578 47.1562H81.0938C80.8594 47.1562 80.4753 47.1367 79.9414 47.0977C79.4206 47.0586 78.8411 46.9544 78.2031 46.7852C77.5651 46.6159 76.901 46.3555 76.2109 46.0039C75.5339 45.6654 74.9089 45.1966 74.3359 44.5977C73.776 43.9987 73.3073 43.25 72.9297 42.3516C72.5651 41.4531 72.3828 40.3594 72.3828 39.0703ZM78.8672 27.0781V39.8125C78.8802 40.2682 78.9909 40.6914 79.1992 41.082C79.3685 41.4076 79.6224 41.7005 79.9609 41.9609C80.3125 42.2214 80.8073 42.3516 81.4453 42.3516C82.0703 42.3516 82.5521 42.2214 82.8906 41.9609C83.2292 41.7005 83.4831 41.4076 83.6523 41.082C83.8346 40.6914 83.9453 40.2682 83.9844 39.8125V27.0781C83.9453 26.6354 83.8346 26.2188 83.6523 25.8281C83.4831 25.5156 83.2292 25.2292 82.8906 24.9688C82.5521 24.7083 82.0703 24.5781 81.4453 24.5781C80.8073 24.5781 80.3125 24.7083 79.9609 24.9688C79.6224 25.2292 79.3685 25.5156 79.1992 25.8281C78.9909 26.2188 78.8802 26.6354 78.8672 27.0781ZM95.3516 38.9922V24.1094C95.3516 23.276 95.4232 22.5273 95.5664 21.8633C95.7227 21.1862 96.0286 20.6523 96.4844 20.2617C96.9531 19.8581 97.6562 19.6562 98.5938 19.6562C99.5573 19.6562 100.267 19.8516 100.723 20.2422C101.191 20.6328 101.491 21.1667 101.621 21.8438C101.764 22.5078 101.836 23.263 101.836 24.1094V39.5C101.875 40.0599 101.992 40.5677 102.188 41.0234C102.37 41.4531 102.643 41.8177 103.008 42.1172C103.385 42.4036 103.854 42.5469 104.414 42.5469C104.987 42.5469 105.462 42.4036 105.84 42.1172C106.217 41.8307 106.491 41.4661 106.66 41.0234C106.868 40.5547 106.979 40.0469 106.992 39.5V24.1094C106.992 23.263 107.057 22.5078 107.188 21.8438C107.331 21.1667 107.63 20.6328 108.086 20.2422C108.555 19.8516 109.271 19.6562 110.234 19.6562C111.185 19.6562 111.888 19.8581 112.344 20.2617C112.799 20.6523 113.099 21.1862 113.242 21.8633C113.398 22.5273 113.477 23.276 113.477 24.1094V38.9922C113.477 40.3464 113.262 41.5312 112.832 42.5469C112.402 43.5495 111.784 44.3958 110.977 45.0859C109.362 46.4661 107.174 47.1562 104.414 47.1562C101.68 47.1562 99.4987 46.4531 97.8711 45.0469C97.0768 44.3568 96.4583 43.5039 96.0156 42.4883C95.5729 41.4727 95.3516 40.3073 95.3516 38.9922ZM119.453 42.5078V24.1484C119.453 23.3151 119.525 22.5599 119.668 21.8828C119.811 21.2057 120.111 20.6654 120.566 20.2617C121.035 19.8581 121.745 19.6562 122.695 19.6562C123.646 19.6562 124.349 19.8581 124.805 20.2617C125.273 20.6654 125.579 21.2057 125.723 21.8828C125.866 22.5599 125.938 23.3151 125.938 24.1484V42.5078C125.938 43.3542 125.866 44.1224 125.723 44.8125C125.592 45.4896 125.293 46.0234 124.824 46.4141C124.368 46.8047 123.659 47 122.695 47C121.758 47 121.055 46.8047 120.586 46.4141C120.13 46.0104 119.824 45.4701 119.668 44.793C119.525 44.1159 119.453 43.3542 119.453 42.5078ZM130.82 43.0156L140.898 25.5547L140.586 25.2422H134.961C134.219 25.2422 133.509 25.1836 132.832 25.0664C132.155 24.9492 131.602 24.7018 131.172 24.3242C130.755 23.9466 130.547 23.3802 130.547 22.625C130.547 21.7526 130.755 21.1081 131.172 20.6914C131.589 20.2747 132.129 20.0013 132.793 19.8711C133.47 19.7279 134.193 19.6562 134.961 19.6562H145.234C146.159 19.6562 146.901 19.9622 147.461 20.5742C148.034 21.1732 148.32 21.8568 148.32 22.625C148.32 23.0286 148.242 23.3802 148.086 23.6797L138.047 41.1406L138.32 41.4141H143.945C144.701 41.4141 145.41 41.4792 146.074 41.6094C146.751 41.7266 147.298 41.987 147.715 42.3906C148.145 42.7812 148.359 43.3802 148.359 44.1875C148.359 45.0078 148.145 45.6198 147.715 46.0234C147.298 46.4271 146.751 46.694 146.074 46.8242C145.41 46.9414 144.701 47 143.945 47H133.672C132.747 47 131.992 46.7201 131.406 46.1602C130.833 45.6003 130.547 44.9427 130.547 44.1875C130.547 43.9531 130.56 43.7513 130.586 43.582C130.625 43.3997 130.703 43.2109 130.82 43.0156Z" fill="#9282FA"/>
<path d="M165.234 40.6719H164.844C164.154 40.6719 163.613 40.431 163.223 39.9492C162.832 39.4544 162.539 38.9271 162.344 38.3672L158.633 27.6641H158.125V43.9531C158.125 44.8776 157.969 45.6198 157.656 46.1797C157.344 46.7266 156.628 47 155.508 47C154.258 47 153.457 46.7331 153.105 46.1992C152.754 45.6654 152.578 44.9167 152.578 43.9531V24.1094C152.578 23.276 152.624 22.5273 152.715 21.8633C152.819 21.1862 153.073 20.6523 153.477 20.2617C153.893 19.8581 154.57 19.6562 155.508 19.6562H158.164C158.841 19.6562 159.375 19.7148 159.766 19.832C160.156 19.9492 160.54 20.3203 160.918 20.9453C161.152 21.3229 161.432 21.9089 161.758 22.7031C162.057 23.4583 162.409 24.4284 162.812 25.6133C163.216 26.7982 163.711 28.25 164.297 29.9688L164.805 31.5312H165.273L165.898 29.5781C166.159 28.7578 166.406 28.0026 166.641 27.3125C166.875 26.6094 167.083 25.9779 167.266 25.418C167.643 24.2852 167.975 23.3542 168.262 22.625C168.548 21.8828 168.809 21.3099 169.043 20.9062C169.382 20.3073 169.74 19.9492 170.117 19.832C170.508 19.7148 171.029 19.6562 171.68 19.6562H174.531C175.469 19.6562 176.139 19.8581 176.543 20.2617C176.96 20.6523 177.214 21.1862 177.305 21.8633C177.409 22.5273 177.461 23.276 177.461 24.1094V43.9531C177.461 44.9167 177.285 45.6654 176.934 46.1992C176.582 46.7331 175.781 47 174.531 47C173.424 47 172.708 46.7266 172.383 46.1797C172.07 45.6198 171.914 44.8776 171.914 43.9531V27.6641H171.367L167.695 38.3672C167.474 38.9271 167.181 39.4544 166.816 39.9492C166.465 40.431 165.938 40.6719 165.234 40.6719ZM183.945 42.5078V24.1484C183.945 23.3151 184.017 22.5599 184.16 21.8828C184.303 21.2057 184.603 20.6654 185.059 20.2617C185.527 19.8581 186.237 19.6562 187.188 19.6562C188.138 19.6562 188.841 19.8581 189.297 20.2617C189.766 20.6654 190.072 21.2057 190.215 21.8828C190.358 22.5599 190.43 23.3151 190.43 24.1484V42.5078C190.43 43.3542 190.358 44.1224 190.215 44.8125C190.085 45.4896 189.785 46.0234 189.316 46.4141C188.861 46.8047 188.151 47 187.188 47C186.25 47 185.547 46.8047 185.078 46.4141C184.622 46.0104 184.316 45.4701 184.16 44.793C184.017 44.1159 183.945 43.3542 183.945 42.5078ZM195.781 41.9609L201.25 33.4062V33.0547L196.328 25.5938C196.185 25.3724 196.048 25.1576 195.918 24.9492C195.788 24.7279 195.664 24.513 195.547 24.3047C195.352 23.9531 195.169 23.582 195 23.1914C194.844 22.8008 194.766 22.4688 194.766 22.1953C194.766 21.8438 194.863 21.4857 195.059 21.1211C195.267 20.7565 195.625 20.4245 196.133 20.125C196.719 19.8125 197.253 19.6562 197.734 19.6562C198.477 19.6562 199.089 19.9557 199.57 20.5547C200.065 21.1406 200.521 21.7786 200.938 22.4688L204.57 28.4453H205.156L208.789 22.4688C209.219 21.7786 209.674 21.1406 210.156 20.5547C210.638 19.9557 211.25 19.6562 211.992 19.6562C212.227 19.6562 212.474 19.7018 212.734 19.793C213.008 19.8841 213.294 20.0078 213.594 20.1641C214.141 20.4635 214.518 20.7891 214.727 21.1406C214.935 21.4792 215.039 21.8177 215.039 22.1562C215.039 22.4427 214.954 22.7812 214.785 23.1719C214.616 23.5625 214.427 23.9401 214.219 24.3047C213.984 24.7344 213.711 25.1641 213.398 25.5938L208.516 33.0547V33.4062L213.945 41.9609C214.219 42.3906 214.453 42.8203 214.648 43.25C214.857 43.6667 214.961 44.0833 214.961 44.5C214.961 44.8516 214.863 45.2031 214.668 45.5547C214.486 45.8932 214.141 46.2188 213.633 46.5312C213.047 46.8438 212.513 47 212.031 47C211.354 47 210.794 46.7526 210.352 46.2578C209.909 45.763 209.492 45.2161 209.102 44.6172L205.156 38.2109H204.57L200.625 44.6172C200.234 45.2161 199.818 45.763 199.375 46.2578C198.932 46.7526 198.385 47 197.734 47C197.24 47 196.719 46.8438 196.172 46.5312C195.638 46.2188 195.267 45.8932 195.059 45.5547C194.863 45.2031 194.766 44.8516 194.766 44.5C194.766 44.0833 194.863 43.6667 195.059 43.25C195.267 42.8203 195.508 42.3906 195.781 41.9609Z" fill="#681B8C"/>
<g clip-path="url(#clip1_80_37)">
<path d="M35.5938 10.8594V13.7188H37H38.4063V10.8594V8H37H35.5938V10.8594Z" fill="#F0DC02"/>
<path d="M20.0969 15.1062L19.0938 16.1094L21.0438 18.0594C22.1125 19.1281 23.0313 20 23.0781 20C23.2 20 25 18.2 25 18.0781C25 18.0219 24.1281 17.1031 23.05 16.0344L21.1094 14.0937L20.0969 15.1062Z" fill="#F0DC02"/>
<path d="M50.8938 16.0906L48.9062 18.0781L49.8719 19.0437C50.3969 19.5687 50.875 20 50.9219 20C50.9781 20 51.8969 19.1281 52.9656 18.05L54.9063 16.1094L53.8938 15.0969L52.8906 14.0937L50.8938 16.0906Z" fill="#F0DC02"/>
<path d="M31.5625 16.6813C29.7438 17.075 28.1406 18.4906 27.4844 20.3C27.2781 20.8625 27.2688 20.8719 26.7063 21.0781C24.4844 21.8844 22.9469 24.0406 22.9375 26.3656C22.9375 26.7875 22.8906 26.9375 22.6094 27.3125C21.1469 29.3094 21.2031 32.1313 22.7594 34.0625L23.1719 34.5781L23.0594 35.0938C22.8063 36.3125 23.0125 37.7281 23.6125 38.8719C23.9781 39.575 25.0469 40.6813 25.7313 41.0563C26.125 41.2719 26.2938 41.45 26.5938 41.9469C27.0719 42.7625 28.1031 43.7188 28.9469 44.15C29.9875 44.6656 30.5313 44.75 33.2313 44.75H35.5938V40.5781V36.3969L35.3875 36.5094C35.2656 36.5656 34.8813 36.8 34.5156 37.0156C34.1594 37.2406 33.6719 37.475 33.4375 37.5313C32.5375 37.775 31.2813 37.4188 29.9875 36.5563C28.9844 35.8906 28.9938 35.9938 29.9219 34.8688C30.3625 34.325 30.7656 33.8563 30.8125 33.8281C30.8594 33.8 31.2156 33.9875 31.6 34.2406C32.5469 34.8594 32.6875 34.8875 33.2031 34.5313C33.775 34.1375 34.7219 33.6969 35.1531 33.6219C35.35 33.5938 35.5375 33.5188 35.5563 33.4625C35.575 33.4063 35.5844 32.1406 35.575 30.6594L35.5469 27.9594L34.7031 28.475C34.2438 28.7469 33.6719 29.0281 33.4375 29.0938C32.5375 29.3375 31.2813 28.9813 29.9875 28.1188C28.9844 27.4531 28.9938 27.5563 29.9219 26.4313C30.3625 25.8875 30.7656 25.4188 30.8125 25.3906C30.8594 25.3625 31.2156 25.55 31.6 25.8031C32.5469 26.4125 32.6969 26.4406 33.1844 26.1125C33.775 25.7 34.5063 25.3531 35.0594 25.2125L35.5469 25.0906L35.575 21.2L35.5938 17.3094L34.9656 17.0188C33.8875 16.5313 32.7625 16.4188 31.5625 16.6813Z" fill="#F0DC02"/>
<path d="M40.0469 16.6719C39.7375 16.7375 39.2406 16.9062 38.9406 17.0562L38.4062 17.3187L38.425 21.2L38.4531 25.0906L38.9406 25.2125C39.4844 25.3531 39.9625 25.5781 40.7688 26.0656C41.3875 26.45 41.4156 26.45 42.3906 25.8031C42.7844 25.55 43.1125 25.3437 43.1313 25.3437C43.1594 25.3437 43.5625 25.8125 44.0313 26.375C45.0156 27.5562 45.025 27.4531 44.0125 28.1187C42.7188 28.9812 41.4625 29.3375 40.5625 29.0937C40.3281 29.0281 39.7656 28.7469 39.2969 28.475L38.4531 27.9594L38.425 30.6594C38.4156 32.1406 38.425 33.4062 38.4531 33.4719C38.4719 33.5375 38.5938 33.5937 38.7063 33.5937C39.0156 33.6031 39.8969 33.9781 40.6563 34.4375C41.0969 34.7 41.3594 34.8125 41.4906 34.7656C41.5938 34.7375 41.9969 34.5031 42.3906 34.2406C42.7844 33.9875 43.1125 33.7812 43.1313 33.7812C43.1594 33.7812 43.5625 34.25 44.0313 34.8125C45.0156 35.9937 45.025 35.8906 44.0125 36.5562C42.7188 37.4187 41.4625 37.775 40.5625 37.5312C40.3281 37.475 39.85 37.2406 39.4844 37.0156C39.1281 36.8 38.7344 36.5656 38.6219 36.5094L38.4062 36.3969V40.5781V44.75H40.7781C43.4781 44.75 44.0125 44.675 45.0719 44.1406C45.925 43.7094 46.9094 42.7812 47.4156 41.9375C47.7063 41.45 47.875 41.2719 48.2688 41.0562C48.9531 40.6812 50.0219 39.575 50.3875 38.8719C50.9875 37.7281 51.1938 36.3125 50.9406 35.0937L50.8281 34.5781L51.2406 34.0625C51.9906 33.125 52.4688 31.7937 52.4688 30.5937C52.4688 29.4969 52.0375 28.1937 51.3906 27.3125C51.1094 26.9375 51.0625 26.7875 51.0625 26.3656C51.0531 24.0406 49.5156 21.8844 47.2938 21.0781C46.7313 20.8719 46.7219 20.8625 46.5156 20.3C45.55 17.6375 42.7656 16.0719 40.0469 16.6719Z" fill="#F0DC02"/>
<path d="M13 32V33.4062H15.8594H18.7188V32V30.5937H15.8594H13V32Z" fill="#F0DC02"/>
<path d="M55.2812 32V33.4062H58.1406H61V32V30.5937H58.1406H55.2812V32Z" fill="#F0DC02"/>
<path d="M29.9688 48.9687V50.375H37H44.0313V48.9687V47.5625H37H29.9688V48.9687Z" fill="#F0DC02"/>
<path d="M33.0625 53.2344C33.0625 53.2625 33.175 53.5062 33.3063 53.7687C33.7938 54.725 34.8719 55.5687 36.0156 55.8687C37.3656 56.2344 38.9125 55.7844 39.9625 54.7437C40.3563 54.3406 40.9375 53.45 40.9375 53.2344C40.9375 53.2062 39.1656 53.1875 37 53.1875C34.8344 53.1875 33.0625 53.2062 33.0625 53.2344Z" fill="#F0DC02"/>
</g>
</g>
<defs>
<clipPath id="clip0_80_37">
<rect width="228" height="67" fill="white"/>
</clipPath>
<clipPath id="clip1_80_37">
<rect width="48" height="48" fill="white" transform="translate(13 8)"/>
</clipPath>
</defs>
</svg>
