<svg width="90" height="90" viewBox="0 0 90 90" fill="none" xmlns="http://www.w3.org/2000/svg">
<path d="M6.78472 0.301182C3.76358 1.03661 1.29174 3.42179 0.369708 6.52253C-0.0226473 7.79463 -0.0226474 8.29155 0.0165882 22.4436L0.0754415 37.0529L0.52665 38.1858C1.50754 40.6505 3.39084 42.5587 5.80383 43.5525L6.94166 44.0096L20.576 44.109L34.2104 44.2084L35.2893 44.7252C35.8779 45.0035 37.6042 46.2557 39.1148 47.488C42.4694 50.231 43.1168 50.5689 45.0982 50.549C47.0011 50.549 47.5504 50.2509 51.1797 47.329C52.7492 46.0768 54.4167 44.8445 54.9071 44.6258C55.7703 44.2283 56.1234 44.2084 69.4243 44.109L83.0586 44.0096L84.1768 43.5525C86.5702 42.5785 88.532 40.6505 89.454 38.3846L89.9248 37.2516L89.9837 22.4039C90.0229 7.77475 90.0229 7.53624 89.6109 6.30389C88.5712 3.14352 85.9228 0.778217 82.784 0.181923C82.0973 0.062664 68.7965 -0.0168419 44.8236 0.0030365C13.9648 0.0229111 7.74599 0.062664 6.78472 0.301182ZM46.6873 11.8296C49.2768 12.6047 50.5323 15.6061 49.3357 18.1702C48.8648 19.2038 47.5308 20.5951 46.1183 21.5492C45.6671 21.8473 45.2944 22.2051 45.2944 22.3442C45.2944 22.5033 46.0203 23.3579 46.8834 24.2524C48.7079 26.1407 48.6687 26.1407 49.4534 23.9542C49.8065 22.9803 49.983 22.7418 50.5716 22.5033C51.3955 22.1455 53.1611 22.2449 53.6516 22.6424C54.1812 23.0995 53.9066 24.9481 53.0827 26.4984L52.396 27.7705L53.2985 27.8699C54.5344 28.009 55.1033 28.665 55.1033 29.9967C55.1033 31.4676 54.8483 31.9247 53.9066 32.203C52.9453 32.5011 50.9051 32.2229 49.4141 31.5669L48.4529 31.1495L47.1385 31.6862C43.7642 33.0577 39.7426 32.68 37.9181 30.8116C36.8588 29.7383 36.5645 28.9234 36.5645 26.9158C36.5645 24.7891 36.9372 23.835 38.4478 22.1455L39.4287 21.0721L38.9971 19.8199C37.9574 16.7589 38.4478 13.9961 40.2134 12.6445C41.6455 11.5712 44.5882 11.2134 46.6873 11.8296ZM22.0866 13.1812C26.6771 15.3875 28.8547 20.8933 27.148 25.8823C26.991 26.3394 26.8537 26.7767 26.8537 26.8562C26.8537 26.9357 27.3834 27.373 28.0308 27.8103C29.6002 28.9035 29.7767 29.6787 28.7762 31.1893C28.1289 32.1434 27.3638 32.6602 26.8145 32.521C26.5594 32.4415 25.7943 32.0241 25.1077 31.5868L23.8914 30.7918L22.2435 31.6067C20.7526 32.362 20.4191 32.4415 18.7712 32.5409C15.652 32.6999 13.4548 31.8651 11.3557 29.7184C9.37426 27.691 8.41299 25.3655 8.41299 22.6026C8.41299 14.9899 15.5735 10.0606 22.0866 13.1812ZM73.3282 13.042C74.0737 13.7576 81.5873 29.4799 81.5873 30.3346C81.5873 31.6663 78.8604 33.1173 77.8403 32.3223C77.6637 32.1831 77.0556 31.1495 76.5063 30.0365L75.5058 28.009L71.8176 28.0488L68.1491 28.1084L67.2271 30.0365C66.2069 32.203 65.6773 32.6999 64.6571 32.5011C63.6566 32.3024 62.2442 31.3085 62.0872 30.6924C61.9303 30.0762 61.7145 30.593 66.2854 20.9529C70.0716 12.9426 70.3659 12.5054 71.8765 12.5054C72.5631 12.5054 72.877 12.6246 73.3282 13.042Z" fill="#D8DEE9"/>
<path d="M43.1532 15.4074C42.7412 15.7055 42.7019 15.8645 42.7804 16.9975C42.8196 17.6932 42.9177 18.3093 42.9962 18.3888C43.3493 18.7466 45.6838 16.8385 45.6838 16.2223C45.6838 15.2483 44.0948 14.7514 43.1532 15.4074Z" fill="#D8DEE9"/>
<path d="M41.3919 25.604C41.0584 26.2003 41.1369 27.3134 41.5292 27.7904C41.9019 28.2873 43.1575 28.6252 43.9422 28.4662L44.4915 28.3668L43.1771 26.8363C42.4709 26.0015 41.8235 25.3059 41.745 25.2661C41.6665 25.2263 41.5096 25.3854 41.3919 25.604Z" fill="#D8DEE9"/>
<path d="M16.1221 17.4546C14.1211 18.3888 13.0029 20.4162 13.1598 22.8213C13.2776 24.4512 13.8072 25.5245 14.9647 26.5581C16.848 28.2476 19.3198 28.2277 21.3405 26.4984C23.4788 24.6698 23.4788 20.2175 21.3405 18.3888C19.8103 17.077 17.77 16.7192 16.1221 17.4546Z" fill="#D8DEE9"/>
<path d="M71.0126 22.1057C70.5614 23.0598 70.2083 23.8946 70.2083 23.9344C70.2083 23.994 70.9537 24.0337 71.8758 24.0337C72.7978 24.0337 73.5433 23.9741 73.5237 23.8747C73.5237 23.7952 73.1313 22.9803 72.6605 22.0461L71.8169 20.3566L71.0126 22.1057Z" fill="#D8DEE9"/>
<path d="M18.7106 48.2831C13.7081 48.7601 9.23526 50.9664 5.64521 54.7628C3.25184 57.3269 1.5451 60.4078 0.623064 63.9458C0.171855 65.6353 0.0933838 66.2713 0.0933838 69.054C0.0933838 72.5324 0.407268 74.2816 1.5451 77.104C4.21312 83.6633 10.1965 88.533 17.0824 89.7455C19.5346 90.1828 23.5562 90.0436 25.773 89.4275C30.2459 88.215 33.9537 85.7702 36.7786 82.1924C42.3304 75.1561 42.8209 65.2974 37.9753 57.7443C33.7379 51.1851 26.4008 47.5874 18.7106 48.2831ZM29.01 61.5606C30.344 62.2364 30.9129 63.8464 30.3636 65.3173C30.2655 65.6154 27.8133 68.259 24.9295 71.2007C17.7494 78.4954 18.0829 78.396 13.9435 74.2617C12.4918 72.8107 11.197 71.3995 11.0401 71.1013C10.4319 69.9286 10.8047 68.2192 11.864 67.3844C13.1981 66.3111 14.6302 66.6887 16.5527 68.577L17.9456 69.9286L21.8495 65.9533C24.0074 63.747 26.0477 61.7792 26.3616 61.5805C27.1071 61.1034 28.1272 61.1034 29.01 61.5606Z" fill="#D8DEE9"/>
<path d="M67.3239 48.3028C58.849 49.1178 51.7081 55.3391 49.3736 63.9457C49.0205 65.2376 48.942 66.0526 48.942 69.0539C48.9224 72.1944 48.9812 72.8305 49.3736 74.3013C50.3349 77.8393 51.8651 80.6618 54.2192 83.206C56.1221 85.2732 57.7308 86.5452 59.9672 87.6981C63.3611 89.4671 66.4214 90.1429 70.345 89.964C73.3661 89.8447 75.4652 89.3478 77.9959 88.1354C80.3501 87.0024 81.7625 86.0483 83.5281 84.3588C85.5292 82.4308 86.7455 80.7612 87.9618 78.1971C89.59 74.838 89.9039 73.3472 89.9235 69.1533C89.9235 66.1122 89.8647 65.4563 89.4723 63.9854C87.0986 55.2199 80.0362 49.1376 71.2278 48.283C70.0704 48.1836 69.0895 48.1041 69.0306 48.1041C68.9718 48.1239 68.2067 48.2035 67.3239 48.3028ZM65.6171 61.4015C65.9114 61.5207 66.8923 62.3357 67.7947 63.2301L69.423 64.86L71.0512 63.2301C71.9537 62.3357 72.9345 61.5207 73.2288 61.4015C74.5824 60.8847 76.093 61.4412 76.8189 62.7133C77.7017 64.2637 77.3485 65.2575 75.1317 67.4638L73.5427 69.034L75.1906 70.7434C77.0739 72.6913 77.4859 73.5858 77.1131 74.8976C76.6815 76.3486 75.2102 77.2828 73.7781 77.0045C73.2288 76.9051 72.6403 76.448 71.2474 75.0566L69.423 73.2479L67.6966 74.9572C65.4602 77.2232 64.8128 77.4816 63.2041 76.6865C62.6156 76.4082 62.2232 76.0306 61.9682 75.4939C61.1639 73.9237 61.5759 72.7907 63.7142 70.644C64.4793 69.8887 65.1071 69.1732 65.1071 69.0539C65.1071 68.9347 64.4008 68.1396 63.5376 67.265C61.8701 65.5954 61.4581 64.8003 61.6347 63.6674C61.929 61.8189 63.8515 60.7257 65.6171 61.4015Z" fill="#D8DEE9"/>
</svg>
