<svg width="104" height="64" viewBox="0 0 104 64" fill="none" xmlns="http://www.w3.org/2000/svg">
<g clip-path="url(#clip0_105_22)">
<path d="M52.3828 39.0703V27.4297C52.3828 26.1406 52.5651 25.0664 52.9297 24.207C53.2943 23.3216 53.763 22.5794 54.3359 21.9805C54.9089 21.3815 55.5339 20.9193 56.2109 20.5938C56.5495 20.4245 56.8815 20.2812 57.207 20.1641C57.5456 20.0469 57.8776 19.9427 58.2031 19.8516C58.8542 19.6953 59.4336 19.5977 59.9414 19.5586C60.4622 19.5195 60.8464 19.5 61.0938 19.5H61.7578C62.0052 19.5 62.3893 19.5195 62.9102 19.5586C63.418 19.5977 63.9909 19.6953 64.6289 19.8516C65.2799 20.0078 65.944 20.2552 66.6211 20.5938C67.2721 20.9062 67.8906 21.3685 68.4766 21.9805C69.0365 22.5794 69.4922 23.3216 69.8438 24.207C70.2083 25.0924 70.3906 26.1667 70.3906 27.4297V39.0703C70.3906 40.0469 70.2734 40.9193 70.0391 41.6875C69.8177 42.4557 69.5182 43.1458 69.1406 43.7578L71.0938 45.5156C71.276 45.6979 71.4323 45.8932 71.5625 46.1016C71.6927 46.2969 71.7578 46.6224 71.7578 47.0781C71.7578 47.2734 71.7122 47.5013 71.6211 47.7617C71.5299 48.0352 71.3542 48.3021 71.0938 48.5625C70.8333 48.7969 70.5729 48.9531 70.3125 49.0312C70.0651 49.1094 69.8307 49.1484 69.6094 49.1484C69.1536 49.1484 68.8086 49.0833 68.5742 48.9531C68.3398 48.8359 68.151 48.7057 68.0078 48.5625L65.8203 46.4922C64.9479 46.7786 64.1667 46.9609 63.4766 47.0391C62.7865 47.1172 62.2135 47.1562 61.7578 47.1562H61.0938C60.8594 47.1562 60.4753 47.1367 59.9414 47.0977C59.4206 47.0586 58.8411 46.9544 58.2031 46.7852C57.5651 46.6159 56.901 46.3555 56.2109 46.0039C55.5339 45.6654 54.9089 45.1966 54.3359 44.5977C53.776 43.9987 53.3073 43.25 52.9297 42.3516C52.5651 41.4531 52.3828 40.3594 52.3828 39.0703ZM58.8672 27.0781V39.8125C58.8802 40.2682 58.9909 40.6914 59.1992 41.082C59.3685 41.4076 59.6224 41.7005 59.9609 41.9609C60.3125 42.2214 60.8073 42.3516 61.4453 42.3516C62.0703 42.3516 62.5521 42.2214 62.8906 41.9609C63.2292 41.7005 63.4831 41.4076 63.6523 41.082C63.8346 40.6914 63.9453 40.2682 63.9844 39.8125V27.0781C63.9453 26.6354 63.8346 26.2188 63.6523 25.8281C63.4831 25.5156 63.2292 25.2292 62.8906 24.9688C62.5521 24.7083 62.0703 24.5781 61.4453 24.5781C60.8073 24.5781 60.3125 24.7083 59.9609 24.9688C59.6224 25.2292 59.3685 25.5156 59.1992 25.8281C58.9909 26.2188 58.8802 26.6354 58.8672 27.0781Z" fill="#9282FA"/>
<path d="M88.2812 40.6719H87.8906C87.2005 40.6719 86.6602 40.431 86.2695 39.9492C85.8789 39.4544 85.5859 38.9271 85.3906 38.3672L81.6797 27.6641H81.1719V43.9531C81.1719 44.8776 81.0156 45.6198 80.7031 46.1797C80.3906 46.7266 79.6745 47 78.5547 47C77.3047 47 76.5039 46.7331 76.1523 46.1992C75.8008 45.6654 75.625 44.9167 75.625 43.9531V24.1094C75.625 23.276 75.6706 22.5273 75.7617 21.8633C75.8659 21.1862 76.1198 20.6523 76.5234 20.2617C76.9401 19.8581 77.6172 19.6562 78.5547 19.6562H81.2109C81.888 19.6562 82.4219 19.7148 82.8125 19.832C83.2031 19.9492 83.5872 20.3203 83.9648 20.9453C84.1992 21.3229 84.4792 21.9089 84.8047 22.7031C85.1042 23.4583 85.4557 24.4284 85.8594 25.6133C86.263 26.7982 86.7578 28.25 87.3438 29.9688L87.8516 31.5312H88.3203L88.9453 29.5781C89.2057 28.7578 89.4531 28.0026 89.6875 27.3125C89.9219 26.6094 90.1302 25.9779 90.3125 25.418C90.6901 24.2852 91.0221 23.3542 91.3086 22.625C91.5951 21.8828 91.8555 21.3099 92.0898 20.9062C92.4284 20.3073 92.7865 19.9492 93.1641 19.832C93.5547 19.7148 94.0755 19.6562 94.7266 19.6562H97.5781C98.5156 19.6562 99.1862 19.8581 99.5898 20.2617C100.007 20.6523 100.26 21.1862 100.352 21.8633C100.456 22.5273 100.508 23.276 100.508 24.1094V43.9531C100.508 44.9167 100.332 45.6654 99.9805 46.1992C99.6289 46.7331 98.8281 47 97.5781 47C96.4714 47 95.7552 46.7266 95.4297 46.1797C95.1172 45.6198 94.9609 44.8776 94.9609 43.9531V27.6641H94.4141L90.7422 38.3672C90.5208 38.9271 90.2279 39.4544 89.8633 39.9492C89.5117 40.431 88.9844 40.6719 88.2812 40.6719Z" fill="#681B8C"/>
<g clip-path="url(#clip1_105_22)">
<path d="M24.5938 10.8594V13.7188H26H27.4063V10.8594V8H26H24.5938V10.8594Z" fill="#F0DC02"/>
<path d="M9.09688 15.1062L8.09375 16.1094L10.0438 18.0594C11.1125 19.1281 12.0313 20 12.0781 20C12.2 20 14 18.2 14 18.0781C14 18.0219 13.1281 17.1031 12.05 16.0344L10.1094 14.0937L9.09688 15.1062Z" fill="#F0DC02"/>
<path d="M39.8938 16.0906L37.9062 18.0781L38.8719 19.0437C39.3969 19.5687 39.875 20 39.9219 20C39.9781 20 40.8969 19.1281 41.9656 18.05L43.9063 16.1094L42.8938 15.0969L41.8906 14.0937L39.8938 16.0906Z" fill="#F0DC02"/>
<path d="M20.5625 16.6813C18.7438 17.075 17.1406 18.4906 16.4844 20.3C16.2781 20.8625 16.2688 20.8719 15.7063 21.0781C13.4844 21.8844 11.9469 24.0406 11.9375 26.3656C11.9375 26.7875 11.8906 26.9375 11.6094 27.3125C10.1469 29.3094 10.2031 32.1313 11.7594 34.0625L12.1719 34.5781L12.0594 35.0938C11.8063 36.3125 12.0125 37.7281 12.6125 38.8719C12.9781 39.575 14.0469 40.6813 14.7313 41.0563C15.125 41.2719 15.2938 41.45 15.5938 41.9469C16.0719 42.7625 17.1031 43.7188 17.9469 44.15C18.9875 44.6656 19.5313 44.75 22.2313 44.75H24.5938V40.5781V36.3969L24.3875 36.5094C24.2656 36.5656 23.8813 36.8 23.5156 37.0156C23.1594 37.2406 22.6719 37.475 22.4375 37.5313C21.5375 37.775 20.2813 37.4188 18.9875 36.5563C17.9844 35.8906 17.9938 35.9938 18.9219 34.8688C19.3625 34.325 19.7656 33.8563 19.8125 33.8281C19.8594 33.8 20.2156 33.9875 20.6 34.2406C21.5469 34.8594 21.6875 34.8875 22.2031 34.5313C22.775 34.1375 23.7219 33.6969 24.1531 33.6219C24.35 33.5938 24.5375 33.5188 24.5563 33.4625C24.575 33.4063 24.5844 32.1406 24.575 30.6594L24.5469 27.9594L23.7031 28.475C23.2438 28.7469 22.6719 29.0281 22.4375 29.0938C21.5375 29.3375 20.2813 28.9813 18.9875 28.1188C17.9844 27.4531 17.9938 27.5563 18.9219 26.4313C19.3625 25.8875 19.7656 25.4188 19.8125 25.3906C19.8594 25.3625 20.2156 25.55 20.6 25.8031C21.5469 26.4125 21.6969 26.4406 22.1844 26.1125C22.775 25.7 23.5063 25.3531 24.0594 25.2125L24.5469 25.0906L24.575 21.2L24.5938 17.3094L23.9656 17.0188C22.8875 16.5313 21.7625 16.4188 20.5625 16.6813Z" fill="#F0DC02"/>
<path d="M29.0469 16.6719C28.7375 16.7375 28.2406 16.9062 27.9406 17.0562L27.4062 17.3187L27.425 21.2L27.4531 25.0906L27.9406 25.2125C28.4844 25.3531 28.9625 25.5781 29.7688 26.0656C30.3875 26.45 30.4156 26.45 31.3906 25.8031C31.7844 25.55 32.1125 25.3437 32.1313 25.3437C32.1594 25.3437 32.5625 25.8125 33.0313 26.375C34.0156 27.5562 34.025 27.4531 33.0125 28.1187C31.7188 28.9812 30.4625 29.3375 29.5625 29.0937C29.3281 29.0281 28.7656 28.7469 28.2969 28.475L27.4531 27.9594L27.425 30.6594C27.4156 32.1406 27.425 33.4062 27.4531 33.4719C27.4719 33.5375 27.5938 33.5937 27.7063 33.5937C28.0156 33.6031 28.8969 33.9781 29.6563 34.4375C30.0969 34.7 30.3594 34.8125 30.4906 34.7656C30.5938 34.7375 30.9969 34.5031 31.3906 34.2406C31.7844 33.9875 32.1125 33.7812 32.1313 33.7812C32.1594 33.7812 32.5625 34.25 33.0313 34.8125C34.0156 35.9937 34.025 35.8906 33.0125 36.5562C31.7188 37.4187 30.4625 37.775 29.5625 37.5312C29.3281 37.475 28.85 37.2406 28.4844 37.0156C28.1281 36.8 27.7344 36.5656 27.6219 36.5094L27.4062 36.3969V40.5781V44.75H29.7781C32.4781 44.75 33.0125 44.675 34.0719 44.1406C34.925 43.7094 35.9094 42.7812 36.4156 41.9375C36.7063 41.45 36.875 41.2719 37.2688 41.0562C37.9531 40.6812 39.0219 39.575 39.3875 38.8719C39.9875 37.7281 40.1938 36.3125 39.9406 35.0937L39.8281 34.5781L40.2406 34.0625C40.9906 33.125 41.4688 31.7937 41.4688 30.5937C41.4688 29.4969 41.0375 28.1937 40.3906 27.3125C40.1094 26.9375 40.0625 26.7875 40.0625 26.3656C40.0531 24.0406 38.5156 21.8844 36.2938 21.0781C35.7313 20.8719 35.7219 20.8625 35.5156 20.3C34.55 17.6375 31.7656 16.0719 29.0469 16.6719Z" fill="#F0DC02"/>
<path d="M2 32V33.4062H4.85938H7.71875V32V30.5937H4.85938H2V32Z" fill="#F0DC02"/>
<path d="M44.2812 32V33.4062H47.1406H50V32V30.5937H47.1406H44.2812V32Z" fill="#F0DC02"/>
<path d="M18.9688 48.9687V50.375H26H33.0313V48.9687V47.5625H26H18.9688V48.9687Z" fill="#F0DC02"/>
<path d="M22.0625 53.2344C22.0625 53.2625 22.175 53.5062 22.3063 53.7687C22.7938 54.725 23.8719 55.5687 25.0156 55.8687C26.3656 56.2344 27.9125 55.7844 28.9625 54.7437C29.3563 54.3406 29.9375 53.45 29.9375 53.2344C29.9375 53.2062 28.1656 53.1875 26 53.1875C23.8344 53.1875 22.0625 53.2062 22.0625 53.2344Z" fill="#F0DC02"/>
</g>
</g>
<defs>
<clipPath id="clip0_105_22">
<rect width="104" height="64" fill="white"/>
</clipPath>
<clipPath id="clip1_105_22">
<rect width="48" height="48" fill="white" transform="translate(2 8)"/>
</clipPath>
</defs>
</svg>
